<svg width="128" height="128" viewBox="0 0 128 128" fill="none" xmlns="http://www.w3.org/2000/svg">
<rect width="128" height="128" rx="28" fill="#0B2742"/>
<path d="M34 68C34 51.4315 47.4315 38 64 38H93V50H64C54.0589 50 46 58.0589 46 68C46 77.9411 54.0589 86 64 86H94V98H64C47.4315 98 34 84.5685 34 68Z" fill="#47D6C8"/>
<path d="M34 30H74C89.464 30 102 42.536 102 58C102 73.464 89.464 86 74 86H55V74H74C82.837 74 90 66.837 90 58C90 49.163 82.837 42 74 42H34V30Z" fill="#F4C95D"/>
<circle cx="64" cy="68" r="8" fill="white"/>
</svg>